<?xml version="1.0" encoding="UTF-8"?>
<svg version="1.1" xmlns="http://www.w3.org/2000/svg" width="192" height="192">
<path d="M0 0 C0.6384082 0.19867676 1.27681641 0.39735352 1.93457031 0.60205078 C22.02273297 7.01469955 37.22997443 19.68561108 49 37 C49.82951172 38.16208984 49.82951172 38.16208984 50.67578125 39.34765625 C62.41994938 57.03977517 65.82409562 81.35720268 61.87060547 101.96777344 C57.02943863 124.26098901 45.00044707 143.49494613 26.33203125 156.8671875 C4.77342188 170.6667194 -20.36876788 175.86482873 -45.6875 170.8125 C-63.52698841 166.1634212 -77.12159763 157.90926468 -90 145 C-90.76441406 144.2471875 -91.52882813 143.494375 -92.31640625 142.71875 C-103.12425223 131.38214443 -110.52535232 115.39461057 -113 100 C-113.11085938 99.32066406 -113.22171875 98.64132813 -113.3359375 97.94140625 C-116.47450925 74.82624942 -111.03949854 51.50617728 -97.26806641 32.65380859 C-83.00574902 14.05293489 -63.92572208 2.56631131 -41.1875 -2.64453125 C-27.61017912 -4.15866875 -13.09246261 -4.1205494 0 0 Z " fill="#92258B" transform="translate(122,12)"/>
<path d="M0 0 C16.22193691 15.22248109 25.7660501 32.63111777 28.8125 54.625 C28.8125 55.945 28.8125 57.265 28.8125 58.625 C22.47726809 58.75176673 16.14236306 58.83933632 9.80615234 58.8996582 C7.65075458 58.92480397 5.49544209 58.95892524 3.34033203 59.00219727 C0.24229908 59.06284508 -2.85460681 59.09120912 -5.953125 59.11328125 C-7.39863739 59.15199089 -7.39863739 59.15199089 -8.87335205 59.19148254 C-11.40670494 59.19254484 -13.70717192 59.14161241 -16.1875 58.625 C-18.49560547 56.30151367 -18.49560547 56.30151367 -20.1875 53.625 C-22.67795703 51.82660598 -22.67795703 51.82660598 -25.4921875 50.3125 C-26.54083984 49.71775879 -27.58949219 49.12301758 -28.66992188 48.51025391 C-30.34924805 47.57705322 -30.34924805 47.57705322 -32.0625 46.625 C-33.81104877 45.63610289 -35.55958688 44.64718536 -37.30706787 43.65640259 C-38.49669202 42.98232306 -39.6870051 42.30945797 -40.87799072 41.63778687 C-46.86404578 38.25877305 -52.77958493 34.76361823 -58.6875 31.25 C-60.48930237 30.17921459 -62.29136039 29.10885916 -64.09375 28.0390625 C-65.21233398 27.37318115 -65.21233398 27.37318115 -66.35351562 26.69384766 C-70.14364921 24.48495457 -73.85629781 23.5792683 -78.1875 24.625 C-81.39960997 27.23517981 -83.00774863 28.74461091 -83.84692383 32.85473633 C-83.8704895 34.63787231 -83.8704895 34.63787231 -83.89453125 36.45703125 C-83.92264893 37.62210205 -83.9507666 38.78717285 -83.97973633 39.98754883 C-83.98642334 41.45603271 -83.99311035 42.9245166 -84 44.4375 C-84.061875 49.119375 -84.12375 53.80125 -84.1875 58.625 C-101.6775 58.625 -119.1675 58.625 -137.1875 58.625 C-137.1875 35.13969015 -127.44562175 17.48319353 -111.01513672 1.01123047 C-80.67198089 -28.1328133 -30.97735358 -27.06987585 0 0 Z " fill="#F06370" transform="translate(151.1875,33.375)"/>
<path d="M0 0 C0.6384082 0.19867676 1.27681641 0.39735352 1.93457031 0.60205078 C22.02273297 7.01469955 37.22997443 19.68561108 49 37 C49.82951172 38.16208984 49.82951172 38.16208984 50.67578125 39.34765625 C62.41994938 57.03977517 65.82409562 81.35720268 61.87060547 101.96777344 C57.02943863 124.26098901 45.00044707 143.49494613 26.33203125 156.8671875 C4.77342188 170.6667194 -20.36876788 175.86482873 -45.6875 170.8125 C-63.52698841 166.1634212 -77.12159763 157.90926468 -90 145 C-90.76441406 144.2471875 -91.52882813 143.494375 -92.31640625 142.71875 C-103.12425223 131.38214443 -110.52535232 115.39461057 -113 100 C-113.11085938 99.32066406 -113.22171875 98.64132813 -113.3359375 97.94140625 C-116.47450925 74.82624942 -111.03949854 51.50617728 -97.26806641 32.65380859 C-83.00574902 14.05293489 -63.92572208 2.56631131 -41.1875 -2.64453125 C-27.61017912 -4.15866875 -13.09246261 -4.1205494 0 0 Z M-90.61035156 31.36767578 C-106.41223531 49.92905925 -110.78863134 73.36647995 -109 97 C-107.3248314 108.3902907 -102.84069465 119.1376406 -97 129 C-96.74895508 129.64130859 -96.49791016 130.28261719 -96.23925781 130.94335938 C-95.07242055 133.34958336 -94.23416753 134.49406834 -92 136 C-87.34011149 136.67169877 -82.77525601 136.48473251 -78.09246826 136.24160767 C-62.9969512 135.49015543 -49.34351452 136.76570184 -34.62451172 140.3671875 C-14.10392108 145.31503596 4.45730672 144.33564381 25 140 C25.89235352 139.81759766 26.78470703 139.63519531 27.70410156 139.44726562 C37.91022077 137.28444628 37.91022077 137.28444628 45.7421875 130.8515625 C47.95189603 127.40071286 49.48810421 123.80290222 51 120 C51.41121094 119.09378906 51.82242188 118.18757813 52.24609375 117.25390625 C56.42472046 107.68745315 58.53101284 98.24039839 58.375 87.8125 C58.36412354 86.8114624 58.35324707 85.8104248 58.34204102 84.77905273 C57.83323152 60.83428567 49.09929064 41.49851362 32.75 24.1875 C16.97424569 9.12076836 -4.14178806 0.40391339 -26.03442383 0.71655273 C-52.09128794 1.55100216 -73.16830385 12.31745513 -90.61035156 31.36767578 Z " fill="#451C59" transform="translate(122,12)"/>
<path d="M0 0 C14.85 0 29.7 0 45 0 C45 21.90795129 45 21.90795129 42.6875 28.375 C42.47416016 29.05820313 42.26082031 29.74140625 42.04101562 30.4453125 C40.78650641 34.30994985 39.61741297 37.88601297 37 41 C33.97614029 41.48619889 31.51385853 41.63381274 28.48950195 41.56762695 C27.18674316 41.56872215 27.18674316 41.56872215 25.85766602 41.56983948 C22.98390472 41.56635304 20.11175972 41.52744262 17.23828125 41.48828125 C15.24717596 41.47895687 13.25605921 41.47183899 11.26493835 41.46684265 C6.02196634 41.44774338 0.7796859 41.39861707 -4.4630127 41.34332275 C-9.81183516 41.29219356 -15.16076928 41.26934213 -20.50976562 41.24414062 C-31.00681443 41.1905014 -41.50334973 41.10515296 -52 41 C-48.9642672 37.86963186 -46.08572017 35.6845231 -42.30078125 33.49609375 C-41.18123047 32.84286133 -40.06167969 32.18962891 -38.90820312 31.51660156 C-38.32047119 31.17697388 -37.73273926 30.83734619 -37.12719727 30.48742676 C-34.07165539 28.71958634 -31.03003357 26.92815064 -27.98828125 25.13671875 C-27.3866214 24.78267975 -26.78496155 24.42864075 -26.16506958 24.06387329 C-21.0523999 21.04769755 -15.9977498 17.95270831 -11 14.75 C-9.97966675 14.10695923 -9.97966675 14.10695923 -8.9387207 13.45092773 C-5.65734681 11.32326526 -2.88205885 9.47658093 -1 6 C-0.67 4.02 -0.34 2.04 0 0 Z " fill="#AF2785" transform="translate(135,92)"/>
<path d="M0 0 C3.1394043 1.37011719 3.1394043 1.37011719 6.32421875 3.296875 C6.90458389 3.64207687 7.48494904 3.98727875 8.082901 4.34294128 C9.96019881 5.46422924 11.8236624 6.60650415 13.6875 7.75 C14.97933818 8.52811222 16.27198835 9.30487787 17.56542969 10.08032227 C20.15631687 11.63644736 22.74197947 13.20073941 25.32373047 14.77197266 C28.63823757 16.7863301 31.972919 18.76450472 35.31640625 20.73046875 C37.12771408 21.79929292 38.93891996 22.86828989 40.75 23.9375 C41.58233154 24.42637695 42.41466309 24.91525391 43.2722168 25.41894531 C44.022854 25.8672168 44.77349121 26.31548828 45.546875 26.77734375 C46.19495117 27.16140381 46.84302734 27.54546387 47.51074219 27.94116211 C49.80055451 29.56918113 50.00341865 31.0167134 50.5625 33.75 C49.80956516 38.10029018 48.21971187 38.70811553 44.74829102 41.18896484 C38.70429357 45.17176426 32.43480794 48.78569886 26.1875 52.4375 C23.38776406 54.07938994 20.59005997 55.72470344 17.79296875 57.37109375 C17.1198616 57.76550659 16.44675446 58.15991943 15.75325012 58.56628418 C10.8033062 61.48106521 5.98749403 64.56550921 1.23388672 67.79272461 C-1.14416417 69.07791167 -2.39782348 69.38848354 -5.0625 69.125 C-8 68 -8 68 -10 65 C-10.26069641 62.30566406 -10.26069641 62.30566406 -10.2746582 59.015625 C-10.28419022 57.78424805 -10.29372223 56.55287109 -10.30354309 55.28417969 C-10.30328169 53.93945284 -10.30234476 52.59472597 -10.30078125 51.25 C-10.30466822 49.87141796 -10.30900289 48.49283711 -10.31376648 47.11425781 C-10.32122657 44.22587195 -10.32093869 41.33760832 -10.31567383 38.44921875 C-10.30987471 34.74673385 -10.32682125 31.04474847 -10.3500185 27.34234619 C-10.3647444 24.49590121 -10.36562922 21.64957691 -10.36250877 18.80310059 C-10.36302241 17.43793751 -10.36826823 16.07276776 -10.37832069 14.7076416 C-10.39064619 12.79992483 -10.38196451 10.89210718 -10.37231445 8.984375 C-10.37325859 7.35580566 -10.37325859 7.35580566 -10.3742218 5.69433594 C-10 3 -10 3 -8.68249512 1.15057373 C-5.80834945 -0.81490984 -3.37460632 -0.35819223 0 0 Z " fill="#FBFBFB" transform="translate(81,61)"/>
<path d="M0 0 C0.33 0 0.66 0 1 0 C1 1.98 1 3.96 1 6 C18.49 6 35.98 6 54 6 C54.3125 22.6875 54.3125 22.6875 54.38793945 27.9284668 C54.4202467 29.31041124 54.45362287 30.69233128 54.48828125 32.07421875 C54.49452515 32.78276001 54.50076904 33.49130127 54.50720215 34.22131348 C54.63557327 38.6613982 55.4104138 41.3967203 58 45 C58.33 45.66 58.66 46.32 59 47 C42.17 47 25.34 47 8 47 C0.92852875 30.028469 -0.4440197 17.91562557 0 0 Z " fill="#C42F7E" transform="translate(13,86)"/>
<path d="M0 0 C0.6384082 0.19867676 1.27681641 0.39735352 1.93457031 0.60205078 C22.02273297 7.01469955 37.22997443 19.68561108 49 37 C49.82951172 38.16208984 49.82951172 38.16208984 50.67578125 39.34765625 C61.95154419 56.3341415 65.832854 80.08265839 62.171875 99.98046875 C60.8932581 106.13817988 59.52377223 112.21351323 57 118 C56.67 117.34 56.34 116.68 56 116 C54.02 116.99 54.02 116.99 52 118 C52.64438933 115.39546825 53.2904504 112.7913709 53.9375 110.1875 C54.11990234 109.44951172 54.30230469 108.71152344 54.49023438 107.95117188 C55.2422615 104.92939016 56.01485573 101.95543282 57 99 C59.03704531 71.21285008 52.67828101 48.36451038 34.62890625 27.22265625 C20.63050322 12.30481788 0.44234244 3.02662792 -19.94140625 1.75390625 C-43.98368284 1.10662535 -64.81188069 8.42439264 -82.72265625 24.43359375 C-99.9783037 40.78729539 -106.28153326 61.26724588 -110 84 C-110.66 84 -111.32 84 -112 84 C-112.33 86.31 -112.66 88.62 -113 91 C-113.33 91 -113.66 91 -114 91 C-115.05878967 65.90276346 -107.39942786 43.23122448 -90.5 24.5625 C-67.79337657 0.44208268 -31.96929147 -10.06159411 0 0 Z " fill="#563061" transform="translate(122,12)"/>
<path d="M0 0 C14.85 0 29.7 0 45 0 C45 19 45 19 44 21 C23.21 21 2.42 21 -19 21 C-15.05007648 17.05007648 -11.30210434 14.61319662 -6.55859375 11.78125 C-3.97827251 9.98487369 -2.543479 8.72204603 -1 6 C-0.67 4.02 -0.34 2.04 0 0 Z " fill="#C3307E" transform="translate(135,92)"/>
<path d="M0 0 C17.49 0.33 34.98 0.66 53 1 C53.495 7.435 53.495 7.435 54 14 C54.99 15.65 55.98 17.3 57 19 C57.495 19.99 57.495 19.99 58 21 C41.17 21 24.34 21 7 21 C2 9 2 9 0 0 Z " fill="#B12785" transform="translate(14,112)"/>
<path d="M0 0 C2.5109346 1.05971449 4.52976732 2.08219806 6.8125 3.5 C7.46484619 3.88583252 8.11719238 4.27166504 8.78930664 4.66918945 C10.3036661 5.56724973 11.8133401 6.4732378 13.31933594 7.38525391 C16.44035468 9.26525554 19.58247646 11.10820651 22.7265625 12.94921875 C25.13103531 14.36057491 27.53457044 15.77351807 29.9375 17.1875 C30.80708847 17.69917725 30.80708847 17.69917725 31.69424438 18.22119141 C51.11485672 29.67228509 51.11485672 29.67228509 54 34 C54.58234171 38.4091587 54.48317174 40.32908686 51.85302734 43.98120117 C49.21885138 46.96881895 46.34950075 48.95097423 42.9140625 50.98828125 C42.05253319 51.50551758 42.05253319 51.50551758 41.17359924 52.03320312 C39.33007543 53.13677115 37.4778762 54.22472259 35.625 55.3125 C34.35266289 56.07018664 33.08093587 56.82889869 31.80981445 57.58862305 C29.32562025 59.07133362 26.83817329 60.54829309 24.34716797 62.01953125 C20.27923699 64.42646459 16.23294884 66.86808256 12.1875 69.3125 C10.12910993 70.54853691 8.06691489 71.7782718 6 73 C5.40348633 73.36786621 4.80697266 73.73573242 4.19238281 74.11474609 C0.94378045 76.07127124 -0.75315177 77 -4.625 77 C-8.29955202 75.91124385 -10.30105669 74.69894331 -13 72 C-14.07969941 68.76090178 -14.14642918 66.36385957 -14.17700195 62.95556641 C-14.18983719 61.71062408 -14.20267242 60.46568176 -14.21589661 59.18301392 C-14.22406365 57.82253416 -14.23150745 56.4620499 -14.23828125 55.1015625 C-14.24235678 54.41550304 -14.2464323 53.72944359 -14.25063133 53.02259445 C-14.27146949 49.3923447 -14.28578176 45.76213251 -14.29516602 42.13183594 C-14.30623526 38.38687634 -14.34064653 34.64251014 -14.38033772 30.89776039 C-14.40650551 28.0135082 -14.41485785 25.12939753 -14.41844749 22.24503708 C-14.42331189 20.86474976 -14.43492192 19.4844687 -14.45348549 18.10429764 C-14.47787886 16.17075204 -14.47449192 14.23691684 -14.4699707 12.30322266 C-14.47583694 11.2041861 -14.48170319 10.10514954 -14.48774719 8.97280884 C-13.88578776 5.30387879 -12.55784522 3.64685084 -10 1 C-6.78616753 -0.60691624 -3.49061546 -0.40378017 0 0 Z M-8.67079163 5.15846252 C-10.56906334 7.7884027 -10.38795784 9.74327214 -10.40405273 12.96850586 C-10.41673691 14.19665512 -10.42942108 15.42480438 -10.44248962 16.69017029 C-10.44043809 18.03172982 -10.43744999 19.37328819 -10.43359375 20.71484375 C-10.43815486 22.09103148 -10.44346022 23.46721692 -10.44947815 24.84339905 C-10.45841347 27.72764336 -10.45598192 30.61161085 -10.44604492 33.49584961 C-10.43455869 37.18943462 -10.45475764 40.8820631 -10.48396206 44.57552242 C-10.50232264 47.41775061 -10.50203194 50.25974956 -10.49632454 53.10202217 C-10.49617128 54.4635712 -10.50221955 55.82513573 -10.51461601 57.18662834 C-10.52951702 59.09173201 -10.51622347 60.99699295 -10.50170898 62.90209961 C-10.50154282 63.98559189 -10.50137665 65.06908417 -10.50120544 66.18540955 C-9.87756506 69.68755084 -8.8291774 70.89682818 -6 73 C-0.53528677 72.99360852 3.1621343 71.04697516 7.5625 68.0625 C8.94029756 67.16296329 10.32076399 66.26750795 11.703125 65.375 C12.90678711 64.59769531 12.90678711 64.59769531 14.13476562 63.8046875 C17.59380617 61.62598712 21.09606974 59.52719958 24.609375 57.4375 C25.28044785 57.03800644 25.95152069 56.63851288 26.64292908 56.22691345 C29.38145235 54.59818091 32.12095997 52.97116955 34.86404419 51.35012817 C36.81404826 50.19694696 38.76074835 49.03835351 40.70703125 47.87890625 C41.29703918 47.53234985 41.88704712 47.18579346 42.49493408 46.82873535 C46.63263179 44.37238906 46.63263179 44.37238906 50 41 C50.58345476 38.04253508 50.58345476 38.04253508 50 35 C47.2679136 31.7883788 44.2763827 29.81078037 40.625 27.75 C39.56643799 27.14679932 38.50787598 26.54359863 37.41723633 25.92211914 C36.28954834 25.28781982 35.16186035 24.65352051 34 24 C31.64780493 22.66875593 29.29801065 21.33333192 26.94921875 19.99609375 C26.36130051 19.66193954 25.77338226 19.32778534 25.16764832 18.98350525 C21.42397386 16.84527593 17.73897376 14.6306645 14.08203125 12.34765625 C13.18677734 11.79142578 12.29152344 11.23519531 11.36914062 10.66210938 C9.70760141 9.62253671 8.05343599 8.57105076 6.40820312 7.50585938 C1.75501222 4.61116512 -3.47554154 1.55627633 -8.67079163 5.15846252 Z " fill="#461952" transform="translate(81,57)"/>
<path d="M0 0 C1.3018748 0.30038441 2.60394229 0.59993558 3.90625 0.8984375 C5.97901634 1.37859667 8.04898407 1.87136423 10.11328125 2.38671875 C26.86875183 5.946406 42.97006533 3.69615026 59.55615234 0.45751953 C62.69445787 -0.13001139 65.83478384 -0.58410023 69 -1 C67.34799472 2.14567139 65.79636388 3.73429546 62.40673828 4.86523438 C59.13595186 5.58667818 55.86504391 6.1917708 52.5625 6.75 C51.43005859 6.95753906 50.29761719 7.16507813 49.13085938 7.37890625 C47.02193632 7.76415442 44.91146125 8.14106909 42.79907227 8.50683594 C40.9686909 8.8293279 39.14231024 9.17566575 37.3215332 9.54858398 C20.72594989 12.77555144 2.17820074 7.34180378 -13.96484375 3.61328125 C-19.49218719 2.49643065 -24.86171444 1.96121595 -30.48828125 1.82421875 C-31.44154297 1.80037109 -32.39480469 1.77652344 -33.37695312 1.75195312 C-35.35328634 1.70856058 -37.32992573 1.67754476 -39.30664062 1.65820312 C-40.25345703 1.63048828 -41.20027344 1.60277344 -42.17578125 1.57421875 C-43.03083252 1.55963623 -43.88588379 1.54505371 -44.7668457 1.5300293 C-47 1 -47 1 -48.80151367 -1.03588867 C-49.19701416 -1.68404541 -49.59251465 -2.33220215 -50 -3 C-34.90283318 -8.03238894 -15.08206378 -3.59822523 0 0 Z " fill="#71298C" transform="translate(86,157)"/>
<path d="M0 0 C0.81013046 -0.00029205 1.62026093 -0.00058411 2.4549408 -0.00088501 C5.12794776 0.00050635 7.80067465 0.0160584 10.47363281 0.03173828 C12.32879484 0.0354691 14.18395883 0.03831575 16.03912354 0.04031372 C20.91849216 0.04794474 25.79774146 0.06758872 30.67706299 0.08972168 C35.65741359 0.11019151 40.6377835 0.11931787 45.61816406 0.12939453 C55.3877477 0.15083507 65.15724283 0.18496466 74.92675781 0.22705078 C74.05175781 5.10205078 74.05175781 5.10205078 72.92675781 6.22705078 C70.15736815 6.32222881 67.41298622 6.35259343 64.64331055 6.34057617 C63.34098984 6.34079521 63.34098984 6.34079521 62.01235962 6.34101868 C59.12833195 6.34031924 56.24436802 6.33252541 53.36035156 6.32470703 C51.36637914 6.32284296 49.37240627 6.32141901 47.37843323 6.32041931 C42.11930079 6.31659326 36.86019578 6.30676223 31.60107422 6.29571533 C26.23893607 6.28550308 20.8767935 6.28092209 15.51464844 6.27587891 C4.98533948 6.26514004 -5.54394908 6.24806258 -16.07324219 6.22705078 C-10.93843877 0.7254757 -7.42530572 -0.07009312 0 0 Z " fill="#E8178B" transform="translate(99.0732421875,126.77294921875)"/>
<path d="M0 0 C1.12093552 0.00015106 2.24187103 0.00030212 3.39677429 0.00045776 C4.60622208 0.01078033 5.81566986 0.02110291 7.06176758 0.03173828 C8.91986809 0.03598312 8.91986809 0.03598312 10.81550598 0.04031372 C14.10517969 0.04961892 17.39465746 0.06758287 20.68426514 0.08972168 C24.04249677 0.11019808 27.4007571 0.11931926 30.7590332 0.12939453 C37.34569856 0.15146807 43.93223266 0.18495556 50.51879883 0.22705078 C50.51879883 2.20705078 50.51879883 4.18705078 50.51879883 6.22705078 C29.72879883 6.22705078 8.93879883 6.22705078 -12.48120117 6.22705078 C-7.95221962 1.69806923 -6.2240266 -0.02797315 0 0 Z " fill="#E72E7F" transform="translate(128.481201171875,106.77294921875)"/>
<path d="M0 0 C12.70053906 -0.5434462 24.36553768 1.44510345 36.6796875 4.3125 C50.75386206 7.53559341 66.05565783 10.81499694 80.34375 6.91015625 C83.81687965 6.04558445 84.79394072 5.99214151 88 7 C84.66666667 8.33333333 81.33333333 9.66666667 78 11 C77.23816406 11.36738281 76.47632812 11.73476562 75.69140625 12.11328125 C72.00953944 13.3263201 68.45985538 13.34019143 64.625 13.3125 C63.42798462 13.30621582 63.42798462 13.30621582 62.20678711 13.29980469 C54.57851137 13.15706398 47.40699758 11.76160611 40 10 C36.83740245 9.27254091 33.6705564 8.56691875 30.5 7.875 C29.69997559 7.6987207 28.89995117 7.52244141 28.07568359 7.34082031 C21.74565802 6.00913233 15.67779257 5.52678874 9.19921875 5.46875 C5.2840187 4.89509431 3.08321705 3.42552627 0 1 C0 0.67 0 0.34 0 0 Z " fill="#562B8D" transform="translate(48,164)"/>
<path d="M0 0 C17.49 0 34.98 0 53 0 C53 1.98 53 3.96 53 6 C45.61271898 6.02526692 38.22544902 6.0428316 30.83813477 6.05493164 C28.32283105 6.05997363 25.80753028 6.06680703 23.29223633 6.07543945 C19.68570225 6.08751094 16.07920677 6.09322949 12.47265625 6.09765625 C10.77424339 6.10539818 10.77424339 6.10539818 9.04151917 6.11329651 C8.00051559 6.11337204 6.95951202 6.11344757 5.88696289 6.11352539 C4.96540909 6.115746 4.04385529 6.11796661 3.09437561 6.12025452 C1 6 1 6 0 5 C0 3.35 0 1.7 0 0 Z " fill="#E72D80" transform="translate(14,107)"/>
<path d="M0 0 C6.9048238 -0.15206382 13.80921647 -0.25717845 20.71533203 -0.32958984 C23.06478002 -0.35977339 25.41411524 -0.40072541 27.76318359 -0.45263672 C31.13928016 -0.52537898 34.51388816 -0.55944133 37.890625 -0.5859375 C39.46738007 -0.63238907 39.46738007 -0.63238907 41.07598877 -0.67977905 C42.05670349 -0.68023224 43.03741821 -0.68068542 44.04785156 -0.68115234 C44.90944885 -0.69447601 45.77104614 -0.70779968 46.65875244 -0.7215271 C49 0 49 0 53 6 C36.17 6 19.34 6 2 6 C1.34 4.02 0.68 2.04 0 0 Z " fill="#E7188E" transform="translate(19,127)"/>
<path d="M0 0 C0.66 0.33 1.32 0.66 2 1 C-3.61 6.61 -9.22 12.22 -15 18 C-15.66 17.67 -16.32 17.34 -17 17 C-11.6749489 10.87372593 -6.27309565 5.16205691 0 0 Z " fill="#775C82" transform="translate(44,25)"/>
</svg>
